<svg xmlns="http://www.w3.org/2000/svg" viewBox="0 0 1440 900" role="img" aria-labelledby="title desc">
  <title id="title">Print queue promotional mockup</title>
  <desc id="desc">A representative WordPress admin print-generation queue with status cards and job actions.</desc>
  <rect width="1440" height="900" fill="#f0f0f1"/>
  <rect width="1440" height="32" fill="#1d2327"/><text x="15" y="21" fill="#f0f0f1" font-family="Segoe UI,Arial,sans-serif" font-size="12">W</text><text x="46" y="21" fill="#f0f0f1" font-family="Segoe UI,Arial,sans-serif" font-size="12">My Store</text><text x="1325" y="21" fill="#f0f0f1" font-family="Segoe UI,Arial,sans-serif" font-size="12">Howdy, Admin</text>
  <rect y="32" width="176" height="868" fill="#1d2327"/><g font-family="Segoe UI,Arial,sans-serif" font-size="13" fill="#c3c4c7"><text x="18" y="75">Dashboard</text><text x="18" y="116">WooCommerce</text><rect x="0" y="137" width="176" height="40" fill="#2271b1"/><text x="18" y="162" fill="#fff" font-weight="700">OverCustomise</text><text x="32" y="202">Products</text><text x="32" y="232" fill="#fff" font-weight="700">Print Queue</text><text x="32" y="262">Customer Uploads</text><text x="32" y="292">Settings</text></g>
  <g transform="translate(214 72)" font-family="Segoe UI,Arial,sans-serif">
    <rect x="1048" y="0" width="122" height="28" rx="14" fill="#eef2ff"/><text x="1065" y="19" fill="#4f46e5" font-size="9" font-weight="800">PROMO MOCKUP</text>
    <text x="0" y="28" fill="#111827" font-size="25" font-weight="700">Print Generation Queue</text><text x="0" y="57" fill="#64748b" font-size="13">Monitor UV, engraving, sublimation, and embroidery print file generation jobs.</text><rect x="878" y="38" width="140" height="36" rx="5" fill="#fff" stroke="#4f46e5"/><text x="896" y="61" fill="#4f46e5" font-size="11" font-weight="700">Reset Stuck Jobs</text><rect x="1030" y="38" width="168" height="36" rx="5" fill="#4f46e5"/><text x="1052" y="61" fill="#fff" font-size="11" font-weight="700">Process Pending Now</text>
    <g transform="translate(0 110)">
      <g><rect width="218" height="112" rx="14" fill="#fff" stroke="#e5e7eb"/><circle cx="34" cy="34" r="14" fill="#eef2ff"/><text x="28" y="39" fill="#4f46e5" font-size="14" font-weight="800">Σ</text><text x="20" y="75" fill="#64748b" font-size="11" font-weight="700">ALL</text><text x="168" y="81" fill="#111827" font-size="28" font-weight="750">24</text></g>
      <g transform="translate(238)"><rect width="218" height="112" rx="14" fill="#fff" stroke="#fde68a"/><circle cx="34" cy="34" r="14" fill="#fffbeb"/><text x="29" y="39" fill="#d97706" font-size="13">●</text><text x="20" y="75" fill="#92400e" font-size="11" font-weight="700">PENDING</text><text x="176" y="81" fill="#111827" font-size="28" font-weight="750">8</text></g>
      <g transform="translate(476)"><rect width="218" height="112" rx="14" fill="#fff" stroke="#bae6fd"/><circle cx="34" cy="34" r="14" fill="#f0f9ff"/><text x="27" y="39" fill="#0284c7" font-size="14">↻</text><text x="20" y="75" fill="#075985" font-size="11" font-weight="700">PROCESSING</text><text x="176" y="81" fill="#111827" font-size="28" font-weight="750">2</text></g>
      <g transform="translate(714)"><rect width="218" height="112" rx="14" fill="#fff" stroke="#fecaca"/><circle cx="34" cy="34" r="14" fill="#fef2f2"/><text x="29" y="39" fill="#dc2626" font-size="14">!</text><text x="20" y="75" fill="#991b1b" font-size="11" font-weight="700">FAILED</text><text x="176" y="81" fill="#111827" font-size="28" font-weight="750">1</text></g>
      <g transform="translate(952)"><rect width="218" height="112" rx="14" fill="#fff" stroke="#a7f3d0"/><circle cx="34" cy="34" r="14" fill="#ecfdf5"/><text x="28" y="39" fill="#059669" font-size="14">✓</text><text x="20" y="75" fill="#065f46" font-size="11" font-weight="700">DONE</text><text x="168" y="81" fill="#111827" font-size="28" font-weight="750">13</text></g>
    </g>
    <g transform="translate(0 254)"><rect width="1170" height="496" rx="10" fill="#fff" stroke="#d1d5db"/><text x="22" y="38" fill="#111827" font-size="16" font-weight="700">Jobs</text><rect x="77" y="20" width="57" height="25" rx="12.5" fill="#f1f5f9"/><text x="91" y="37" fill="#64748b" font-size="10" font-weight="700">24 total</text><path d="M0 62H1170" stroke="#d1d5db"/><g transform="translate(20 86)" fill="#64748b" font-size="10" font-weight="800" letter-spacing=".6"><text>JOB</text><text x="92">ORDER</text><text x="196">METHOD</text><text x="330">STATUS</text><text x="448">ATTEMPTS</text><text x="552">CREATED</text><text x="700">LAST ACTIVITY</text><text x="890">ERROR</text><text x="1070">ACTIONS</text></g><path d="M0 106H1170" stroke="#e5e7eb"/>
      <g transform="translate(20 132)" font-size="11"><text fill="#4f46e5" font-family="ui-monospace,monospace" font-weight="700">#1048</text><text x="92" fill="#4f46e5" font-weight="700">#7834</text><rect x="196" y="-16" width="74" height="25" rx="12.5" fill="#eef2ff"/><text x="213" y="1" fill="#4f46e5" font-weight="700">UV Print</text><rect x="330" y="-16" width="74" height="25" rx="12.5" fill="#fffbeb"/><circle cx="344" cy="-3.5" r="4" fill="#d97706"/><text x="354" y="1" fill="#92400e" font-weight="700">Pending</text><text x="470" y="1" fill="#374151">0</text><text x="552" y="1" fill="#374151">Today, 10:42</text><text x="700" y="1" fill="#64748b">—</text><text x="890" y="1" fill="#94a3b8">—</text><rect x="1062" y="-18" width="74" height="28" rx="5" fill="#4f46e5"/><text x="1079" y="1" fill="#fff" font-weight="700">Process</text></g><path d="M0 164H1170" stroke="#e5e7eb"/>
      <g transform="translate(20 190)" font-size="11"><text fill="#4f46e5" font-family="ui-monospace,monospace" font-weight="700">#1047</text><text x="92" fill="#4f46e5" font-weight="700">#7833</text><rect x="196" y="-16" width="84" height="25" rx="12.5" fill="#f0fdf4"/><text x="212" y="1" fill="#166534" font-weight="700">Engraving</text><rect x="330" y="-16" width="90" height="25" rx="12.5" fill="#f0f9ff"/><text x="344" y="1" fill="#075985" font-weight="700">↻ Processing</text><text x="470" y="1" fill="#374151">1</text><text x="552" y="1" fill="#374151">Today, 10:39</text><text x="700" y="1" fill="#374151">12 seconds ago</text><text x="890" y="1" fill="#94a3b8">—</text></g><path d="M0 222H1170" stroke="#e5e7eb"/>
      <g transform="translate(20 248)" font-size="11"><text fill="#4f46e5" font-family="ui-monospace,monospace" font-weight="700">#1046</text><text x="92" fill="#4f46e5" font-weight="700">#7832</text><rect x="196" y="-16" width="96" height="25" rx="12.5" fill="#fdf4ff"/><text x="212" y="1" fill="#86198f" font-weight="700">Sublimation</text><rect x="330" y="-16" width="62" height="25" rx="12.5" fill="#ecfdf5"/><text x="344" y="1" fill="#065f46" font-weight="700">Done</text><text x="470" y="1" fill="#374151">1</text><text x="552" y="1" fill="#374151">Today, 10:35</text><text x="700" y="1" fill="#374151">Today, 10:36</text><text x="890" y="1" fill="#94a3b8">—</text></g><path d="M0 280H1170" stroke="#e5e7eb"/>
      <g transform="translate(20 306)" font-size="11"><text fill="#4f46e5" font-family="ui-monospace,monospace" font-weight="700">#1045</text><text x="92" fill="#4f46e5" font-weight="700">#7831</text><rect x="196" y="-16" width="92" height="25" rx="12.5" fill="#fff7ed"/><text x="212" y="1" fill="#9a3412" font-weight="700">Embroidery</text><rect x="330" y="-16" width="68" height="25" rx="12.5" fill="#fef2f2"/><text x="344" y="1" fill="#991b1b" font-weight="700">Failed</text><text x="470" y="1" fill="#374151">3</text><text x="552" y="1" fill="#374151">Today, 10:18</text><text x="700" y="1" fill="#374151">Today, 10:21</text><text x="890" y="1" fill="#dc2626">Source image unavailable</text><rect x="1062" y="-18" width="74" height="28" rx="5" fill="#fff" stroke="#dc2626"/><text x="1083" y="1" fill="#dc2626" font-weight="700">Retry</text></g><path d="M0 338H1170" stroke="#e5e7eb"/>
      <g transform="translate(20 364)" font-size="11"><text fill="#4f46e5" font-family="ui-monospace,monospace" font-weight="700">#1044</text><text x="92" fill="#4f46e5" font-weight="700">#7830</text><rect x="196" y="-16" width="74" height="25" rx="12.5" fill="#eef2ff"/><text x="213" y="1" fill="#4f46e5" font-weight="700">UV Print</text><rect x="330" y="-16" width="62" height="25" rx="12.5" fill="#ecfdf5"/><text x="344" y="1" fill="#065f46" font-weight="700">Done</text><text x="470" y="1" fill="#374151">1</text><text x="552" y="1" fill="#374151">Today, 10:02</text><text x="700" y="1" fill="#374151">Today, 10:04</text><text x="890" y="1" fill="#94a3b8">—</text></g><path d="M0 396H1170" stroke="#e5e7eb"/><text x="22" y="448" fill="#64748b" font-size="11">Showing 5 representative jobs · queue completion means artwork generation is complete, not that an order has been printed.</text>
    </g>
  </g>
</svg>
